<svg xmlns="http://www.w3.org/2000/svg" width="1864.139" height="1199.592" viewBox="0 0 1864.139 1199.592">
  <g id="Group_63" data-name="Group 63" transform="translate(-16501.041 -2953.137)" opacity="0.1">
    <path id="Path_188" data-name="Path 188" d="M125.911,119.221a22.595,22.595,0,1,1,.848.1Zm0-51.177h-.5a22.635,22.635,0,1,0,.5,0Z" transform="translate(17071.816 3686.937)" fill="#0d0d0d"/>
    <path id="Path_189" data-name="Path 189" d="M91.316,144.17a3.641,3.641,0,0,1-1.746-.449,36.187,36.187,0,1,1,35.714-62.948,3.5,3.5,0,0,1-3.442,6.085,29.183,29.183,0,0,0-28.781,50.777,3.492,3.492,0,0,1-1.746,6.534Z" transform="translate(16920.168 3854.016)" fill="#0d0d0d"/>
    <path id="Path_191" data-name="Path 191" d="M277.551,72.425a3.442,3.442,0,0,1-2.943-1.6l-39.455-62.1a3.492,3.492,0,0,1,1.1-4.988,3.442,3.442,0,0,1,4.988,1.1l39.255,62.6a3.491,3.491,0,0,1-1.1,4.988A3.441,3.441,0,0,1,277.551,72.425Z" transform="translate(17910.52 3045.242)" fill="#0d0d0d"/>
    <path id="Path_201" data-name="Path 201" d="M255.521,89.038a2.844,2.844,0,0,1-.9,0l-39.9-10.574a3.492,3.492,0,0,1-1.8-5.537l20.2-25.389L198.21,38.31a3.442,3.442,0,0,1-2.494-4.24,3.492,3.492,0,0,1,4.29-2.494l39.9,10.574a3.342,3.342,0,0,1,2.394,2.294,3.441,3.441,0,0,1-.549,3.242L221.5,73.076,256.419,82.3a3.492,3.492,0,0,1-.9,6.883Z" transform="translate(17467.152 3331.024)" fill="#0d0d0d"/>
    <path id="Path_202" data-name="Path 202" d="M153.4,114.907a3.442,3.442,0,0,1-2.245-.8L123.124,90.716a3.492,3.492,0,0,1-.449-4.988,3.442,3.442,0,0,1,4.988-.449l25.389,21.2,21.2-25.389a3.442,3.442,0,0,1,4.988-.449l25.389,21.149,21.2-25.389a3.492,3.492,0,0,1,4.988-.4,3.442,3.442,0,0,1,.449,4.988L207.47,109.021a3.542,3.542,0,0,1-4.988.449l-25.389-21.2L155.944,113.66A3.442,3.442,0,0,1,153.4,114.907Z" transform="translate(17233.922 3828.355)" fill="#0d0d0d"/>
    <path id="Path_204" data-name="Path 204" d="M215.853,157.34a2.743,2.743,0,0,1-.9,0l-48.433-12.869a3.541,3.541,0,0,1-2.494-4.29l12.919-48.433a3.442,3.442,0,0,1,1.6-2.145,3.491,3.491,0,0,1,2.644-.349l48.433,12.919a3.442,3.442,0,0,1,2.494,4.24L219.2,154.746A3.492,3.492,0,0,1,215.853,157.34Zm-44.143-19,41.649,11.123,11.123-41.7-41.7-11.073Z" transform="translate(17479.035 3995.352)" fill="#0d0d0d"/>
    <g id="Group_32" data-name="Group 32" transform="translate(18145.352 3383.507)">
      <path id="Path_206" data-name="Path 206" d="M254.785,119.823,223.66,91.641,254.236,88.6l-2.893-27.833h27.833l-.2-30.876L310.1,58.072Z" transform="translate(-220.209 -26.242)" fill="#fff"/>
      <path id="Path_207" data-name="Path 207" d="M257.544,126.231a3.441,3.441,0,0,1-2.344-.9L224.075,97.151a3.541,3.541,0,0,1,2-6.085l26.985-2.843-2.544-24.341A3.492,3.492,0,0,1,254,60.04h24.291V32.657a3.491,3.491,0,0,1,5.836-2.594L315.2,58.295a3.542,3.542,0,0,1,0,4.988l-55.067,61.8a3.341,3.341,0,0,1-2.394,1.147ZM234.6,97.251l22.7,20.55,50.628-56.563-22.645-20.5V63.682a3.542,3.542,0,0,1-1.047,2.444,3.342,3.342,0,0,1-2.444,1.047H258.043l2.544,23.992a3.391,3.391,0,0,1-.8,2.544,3.491,3.491,0,0,1-2.344,1.3Z" transform="translate(-222.968 -29.159)" fill="#0d0d0d"/>
    </g>
    <g id="Group_43" data-name="Group 43" transform="translate(17613.688 3033.298)">
      <path id="Path_209" data-name="Path 209" d="M176.7,26.444l75.568-9.727c5.287-.648,10.425,5.487,11.472,13.717s-2.344,15.513-7.632,16.211l-75.568,9.727c-5.287.648-10.425-5.487-11.472-13.717S171.416,27.142,176.7,26.444Z" transform="translate(-165.337 -12.944)" fill="#fff"/>
      <path id="Path_210" data-name="Path 210" d="M182.58,62.893c-6.834,0-12.869-7.083-14.166-16.809a23.243,23.243,0,0,1,1.8-12.869,11.671,11.671,0,0,1,8.878-7.233l75.568-9.976c7.282-.948,14.066,6.385,15.363,16.71a22.844,22.844,0,0,1-1.746,12.869,11.772,11.772,0,0,1-8.879,7.233l-75.568,9.727Zm73.273-39.9H255.5l-75.518,9.727h0a4.988,4.988,0,0,0-3.492,3.242,17.109,17.109,0,0,0-1.147,9.028c.848,6.584,4.739,11.023,7.582,10.674L258.5,46.233a4.988,4.988,0,0,0,3.492-3.292,16.81,16.81,0,0,0,1.147-8.978c-1.048-6.434-4.439-10.824-7.282-10.824Zm-76.316,6.285Z" transform="translate(-168.171 -15.923)" fill="#0d0d0d"/>
    </g>
    <path id="Path_211" data-name="Path 211" d="M203.375,30.44c1.047,8.28-2.344,15.513-7.632,16.211s-10.425-5.487-11.522-13.717,2.394-15.513,7.681-16.211S202.328,22.21,203.375,30.44Z" transform="translate(17586.75 3099.348)" fill="#fff"/>
    <path id="Path_212" data-name="Path 212" d="M197.722,52.927a12.37,12.37,0,0,1-9.228-4.988A24.94,24.94,0,0,1,185.3,23a11.721,11.721,0,0,1,8.928-6.933c7.283-.948,14.066,6.385,15.363,16.71h0a22.844,22.844,0,0,1-1.746,12.869,11.772,11.772,0,0,1-8.879,7.233ZM195.428,23h-.349c-1.3,0-2.544,1.347-3.442,3.242a18.106,18.106,0,0,0,2.195,17.408,4.1,4.1,0,0,0,7.732-1,16.81,16.81,0,0,0,1.147-8.978c-1.047-6.385-4.439-10.774-7.282-10.774Z" transform="translate(17584.438 3096.613)" fill="#0d0d0d"/>
    <g id="Group_42" data-name="Group 42" transform="translate(17094.344 3518.962)">
      <path id="Path_217" data-name="Path 217" d="M117.441,33.5,154,30.96l20.451,30.377L158.442,94.257,121.881,96.8l-20.5-30.377Z" transform="translate(-98.018 -27.456)" fill="#fff"/>
      <path id="Path_218" data-name="Path 218" d="M124.568,103.094a3.541,3.541,0,0,1-2.893-1.546l-20.5-30.377a3.492,3.492,0,0,1,0-3.492l16.061-32.921a3.541,3.541,0,0,1,2.893-1.945L156.69,30.27a3.392,3.392,0,0,1,3.142,1.546l20.451,30.327a3.392,3.392,0,0,1,0,3.492L164.222,98.8a3.292,3.292,0,0,1-2.893,1.945l-36.512,2.594Zm-16.46-34.217,18.206,27.035,32.521-2.245L173.15,64.338,154.894,37.3,122.373,39.6Z" transform="translate(-100.706 -30.258)" fill="#0d0d0d"/>
      <path id="Path_219" data-name="Path 219" d="M128.058,68.258a3.541,3.541,0,0,1-2.893-1.546l-20.6-30.377a3.492,3.492,0,1,1,5.786-3.891L129.7,61.125l34.567-2.394a3.492,3.492,0,1,1,.449,6.933l-36.512,2.594Z" transform="translate(-88.134 -28.342)" fill="#0d0d0d"/>
      <path id="Path_220" data-name="Path 220" d="M108.272,76.744a3.492,3.492,0,0,1-3.142-4.988l16.061-32.921a3.491,3.491,0,1,1,6.285,3.043l-16.062,32.97a3.442,3.442,0,0,1-3.142,1.9Z" transform="translate(-84.409 -3.908)" fill="#0d0d0d"/>
    </g>
    <g id="Group_40" data-name="Group 40" transform="translate(16589.301 3740.074)">
      <path id="Path_221" data-name="Path 221" d="M68.782,103.8h0a8.38,8.38,0,0,1-.748,1.5,7.034,7.034,0,0,1-1.347,1.846h0a14.97,14.97,0,0,1-1.846,1.3,9.275,9.275,0,0,1-.948.549l-.549.3-1.5.4H61.1L20,120.955l11.472-41.1v-.7l.449-1.5h0c.249-.5.449-1,.748-1.5a8.578,8.578,0,0,1,1.4-1.846h0a14.963,14.963,0,0,1,1.846-1.3,5.882,5.882,0,0,1,.948-.549l.6-.3,1.5-.4h.7L80.853,60.7,69.381,101.6a3.69,3.69,0,0,1,0,.7Z" transform="translate(-16.528 -57.101)" fill="#fff"/>
      <path id="Path_222" data-name="Path 222" d="M22.776,127.324a3.342,3.342,0,0,1-2.444-1.047,3.442,3.442,0,0,1-.9-3.392L30.907,81.834v-.549l.449-1.7a3.491,3.491,0,0,1,.648-1.2,6.335,6.335,0,0,1,.6-1.147A10.624,10.624,0,0,1,34.348,74.9h0a13.466,13.466,0,0,1,2.544-1.846l1.247-.748h.4l.7-.3,1.546-.4,1-.249L82.632,60.086a3.541,3.541,0,0,1,4.29,4.34L75.449,105.476v.549l-.5,1.7a3.192,3.192,0,0,1-.6,1.247l-.6,1.1a11.97,11.97,0,0,1-1.746,2.344h0a14.963,14.963,0,0,1-2.494,1.8l-1.3.748h-.349l-.748.3-1.5.4h-1l-40.9,11.023ZM37.142,83.33h.549l-9.976,35.415,34.966-9.328,1.646,3.142-.9-3.342,1.8-.7,1.447-.948h0a3.292,3.292,0,0,0,.8-1.1,5.834,5.834,0,0,0,.549-1.147,1,1,0,0,0,0-.4v-.6h0l.4-.4h-.5l9.976-35.365L40.084,78.891c-1,.6-1.347.9-1.447.948h0l-.8,1.1a11.428,11.428,0,0,0-.549,1.147,1.5,1.5,0,0,1,0,.4v.6h-.249Z" transform="translate(-19.304 -59.978)" fill="#0d0d0d"/>
      <path id="Path_223" data-name="Path 223" d="M58.173,105.061a3.541,3.541,0,0,1-2.494-5.986,9.976,9.976,0,0,0,1.746-8.928,29.479,29.479,0,0,0-20.3-20.5,9.976,9.976,0,0,0-8.978,1.6,3.541,3.541,0,0,1-4.988,0,3.492,3.492,0,0,1,0-4.988,16.061,16.061,0,0,1,15.363-3.492A36.462,36.462,0,0,1,64.159,88.6a16.061,16.061,0,0,1-3.641,15.363A3.392,3.392,0,0,1,58.173,105.061Z" transform="translate(-8.113 -51.533)" fill="#0d0d0d"/>
    </g>
    <g id="Group_44" data-name="Group 44" transform="translate(17931.027 3527.464)">
      <path id="Path_224" data-name="Path 224" d="M213.489,46.66,167.5,97.188l27.534,2.893-12.719,35.464,45.839-49.68-26.935-2.843Z" transform="translate(-164.041 -43.346)" fill="#fff"/>
      <path id="Path_225" data-name="Path 225" d="M185.081,141.687a3.391,3.391,0,0,1-1.8-.5,3.541,3.541,0,0,1-1.5-4.19l11.223-31.125-23.094-2.394a3.542,3.542,0,0,1-2.245-5.836l45.989-50.528a3.492,3.492,0,0,1,5.886,3.442L208.674,82.779l22.6,2.394a3.492,3.492,0,0,1,2.195,5.836l-45.74,49.78A3.541,3.541,0,0,1,185.081,141.687Zm-7.332-44.592,20.65,2.145a3.691,3.691,0,0,1,2.594,1.646,3.591,3.591,0,0,1,.349,3.043l-6.933,19.254,29.479-31.973-19.952-2.095a3.541,3.541,0,0,1-2.594-1.6,3.491,3.491,0,0,1-.349-2.993l6.684-20.55Z" transform="translate(-166.806 -45.996)" fill="#0d0d0d"/>
    </g>
    <g id="Group_47" data-name="Group 47" transform="translate(16501.041 3447.575)">
      <path id="Path_228" data-name="Path 228" d="M38.918,60.744a3.442,3.442,0,0,1-1,0,3.492,3.492,0,0,1-2.394-4.29,11.2,11.2,0,1,0-21.5-6.285,3.492,3.492,0,0,1-4.34,2.394,3.541,3.541,0,0,1-2.394-4.34A18.2,18.2,0,0,1,42.259,58.35,3.492,3.492,0,0,1,38.918,60.744Z" transform="translate(20.541 -35.124)" fill="#0d0d0d"/>
      <path id="Path_229" data-name="Path 229" d="M38.286,82.711a3.142,3.142,0,0,1-.948,0A45.74,45.74,0,0,1,13.146,66.2,29.928,29.928,0,0,1,8.158,39.715a3.5,3.5,0,1,1,6.734,1.945,23.044,23.044,0,0,0,4.04,20.4,38.607,38.607,0,0,0,20.5,13.617,3.541,3.541,0,0,1,2.394,4.339A3.492,3.492,0,0,1,38.286,82.711Z" transform="translate(19.825 -26.914)" fill="#0d0d0d"/>
      <path id="Path_230" data-name="Path 230" d="M20.952,65.8A50.63,50.63,0,0,1,6.886,63.706a3.492,3.492,0,1,1,1.945-6.684c18.106,4.988,34.916-1.5,38.906-15.612a3.5,3.5,0,1,1,6.734,1.9C50.381,57.371,37.063,65.8,20.952,65.8Z" transform="translate(8.327 -20.228)" fill="#0d0d0d"/>
      <path id="Path_231" data-name="Path 231" d="M17.821,54.438a3.442,3.442,0,0,1-1,0A42.847,42.847,0,0,1,3.007,47.505,3.492,3.492,0,1,1,7.2,41.918,36.163,36.163,0,0,0,18.769,47.6a3.492,3.492,0,0,1-.948,6.834Z" transform="translate(-1.61 -10.811)" fill="#0d0d0d"/>
      <path id="Path_232" data-name="Path 232" d="M47.085,63.308a3.142,3.142,0,0,1-.948,0,3.541,3.541,0,0,1-2.394-4.34,11.073,11.073,0,0,0-.948-8.529,11.323,11.323,0,0,0-6.684-5.587,11.073,11.073,0,0,0-8.529.948,10.824,10.824,0,0,0-5.088,6.784,3.5,3.5,0,0,1-6.734-1.945A18.206,18.206,0,0,1,49.18,46.947a17.807,17.807,0,0,1,1.5,13.817,3.392,3.392,0,0,1-3.591,2.544Z" transform="translate(54.272 -25.516)" fill="#0d0d0d"/>
      <path id="Path_233" data-name="Path 233" d="M46.808,84.9h-1c-21.9-6.385-34.467-24.94-29.279-42.7a3.5,3.5,0,0,1,6.734,1.945C19.125,58.316,29.7,72.931,47.756,78.168a3.492,3.492,0,0,1,2.394,4.34A3.541,3.541,0,0,1,46.808,84.9Z" transform="translate(53.251 -16.984)" fill="#0d0d0d"/>
      <path id="Path_234" data-name="Path 234" d="M28.9,68.08a49.231,49.231,0,0,1-13.817-2,3.5,3.5,0,0,1,1.945-6.734A38.557,38.557,0,0,0,41.624,58.8,22.845,22.845,0,0,0,55.94,43.838a3.541,3.541,0,0,1,4.34-2.394,3.492,3.492,0,0,1,2.344,4.34,29.928,29.928,0,0,1-18.455,19.6A41.7,41.7,0,0,1,28.9,68.08Z" transform="translate(42.075 -10.436)" fill="#0d0d0d"/>
      <path id="Path_235" data-name="Path 235" d="M35.282,55.861a43.327,43.327,0,0,1-11.812-1.643,3.492,3.492,0,0,1-2.354-4.342,3.442,3.442,0,0,1,4.29-2.394,36.163,36.163,0,0,0,12.869,1.3,3.492,3.492,0,1,1,.6,6.833Z" transform="translate(75.601 13.603)" fill="#0d0d0d"/>
    </g>
    <g id="Group_48" data-name="Group 48" transform="translate(18246.004 3222.571)">
      <path id="Path_242" data-name="Path 242" d="M294.394,62.164a3.442,3.442,0,0,1-1,0A3.541,3.541,0,0,1,291,57.824a11.422,11.422,0,0,0-21.9-6.335,3.491,3.491,0,1,1-6.684-1.945,18.406,18.406,0,1,1,35.315,9.976A3.491,3.491,0,0,1,294.394,62.164Z" transform="translate(-234.188 -34.73)" fill="#0d0d0d"/>
      <path id="Path_243" data-name="Path 243" d="M293.663,83.112a3.393,3.393,0,0,1-1,0A46.239,46.239,0,0,1,268.224,66.7a30.327,30.327,0,0,1-4.988-26.785,3.492,3.492,0,1,1,6.684,1.945,23.243,23.243,0,0,0,4.14,20.7,38.906,38.906,0,0,0,20.55,13.817,3.492,3.492,0,0,1-.948,6.834Z" transform="translate(-234.804 -25.152)" fill="#0d0d0d"/>
      <path id="Path_244" data-name="Path 244" d="M275.916,66.045a51.978,51.978,0,0,1-14.265-2.095,3.492,3.492,0,0,1-2.344-4.34,3.442,3.442,0,0,1,4.29-2.394c18.356,5.337,35.365-1.5,39.5-15.862a3.5,3.5,0,0,1,6.734,1.945C305.695,57.516,292.177,66.045,275.916,66.045Z" transform="translate(-246.288 -18.411)" fill="#0d0d0d"/>
      <path id="Path_245" data-name="Path 245" d="M272.941,54.538a3.443,3.443,0,0,1-1,0A43.349,43.349,0,0,1,257.977,47.5a3.492,3.492,0,0,1,4.19-5.586A34.918,34.918,0,0,0,273.888,47.8a3.492,3.492,0,0,1-.948,6.883Z" transform="translate(-256.58 -8.848)" fill="#0d0d0d"/>
      <path id="Path_246" data-name="Path 246" d="M302.914,64.633a3.442,3.442,0,0,1-1,0,3.541,3.541,0,0,1-2.394-4.34,11.422,11.422,0,1,0-21.9-6.335,3.492,3.492,0,1,1-6.684-1.945,18.406,18.406,0,1,1,35.315,9.976,3.492,3.492,0,0,1-3.342,2.644Z" transform="translate(-200.21 -24.879)" fill="#0d0d0d"/>
      <path id="Path_247" data-name="Path 247" d="M302.183,85.582a3.393,3.393,0,0,1-1,0,46.538,46.538,0,0,1-24.441-16.41,30.327,30.327,0,0,1-4.988-26.785,3.492,3.492,0,1,1,6.684,1.945,23.244,23.244,0,0,0,4.14,20.7,38.905,38.905,0,0,0,20.75,13.817,3.492,3.492,0,0,1,2.394,4.339A3.541,3.541,0,0,1,302.183,85.582Z" transform="translate(-200.826 -15.302)" fill="#0d0d0d"/>
      <path id="Path_248" data-name="Path 248" d="M284.2,68.416a50.877,50.877,0,0,1-14.016-2,3.492,3.492,0,0,1-2.344-4.34,3.442,3.442,0,0,1,4.29-2.394,39.106,39.106,0,0,0,24.94-.549,23.393,23.393,0,0,0,14.515-15.313,3.5,3.5,0,1,1,6.734,1.945,30.327,30.327,0,0,1-18.7,19.952A41.75,41.75,0,0,1,284.2,68.416Z" transform="translate(-212.27 -8.56)" fill="#0d0d0d"/>
      <path id="Path_249" data-name="Path 249" d="M290.662,55.991a44.192,44.192,0,0,1-11.971-1.7,3.491,3.491,0,0,1-2.344-4.34,3.442,3.442,0,0,1,4.289-2.394,34.915,34.915,0,0,0,13.068,1.3,3.5,3.5,0,1,1,.6,6.983C293.106,55.941,291.859,55.991,290.662,55.991Z" transform="translate(-178.332 15.885)" fill="#0d0d0d"/>
    </g>
    <path id="Path_251" data-name="Path 251" d="M69.6,81.864H69A53.97,53.97,0,0,1,24.861,19.315a3.492,3.492,0,0,1,4.04-2.843,3.442,3.442,0,0,1,2.843,4.04A47.086,47.086,0,0,0,70.152,74.831a3.492,3.492,0,0,1-.549,6.933Z" transform="translate(16588.91 3098.353)" fill="#0d0d0d"/>
    <path id="Path_252" data-name="Path 252" d="M225.932,69.276a3.492,3.492,0,0,1-1.1-6.784,28.463,28.463,0,0,0-17.957-54.02,3.5,3.5,0,0,1-2.245-6.634,35.415,35.415,0,0,1,42.9,49.481,34.916,34.916,0,0,1-20.5,17.757,2.843,2.843,0,0,1-1.1.2Z" transform="translate(17703.77 3032.879)" fill="#0d0d0d"/>
    <path id="Path_253" data-name="Path 253" d="M109.065,64.321a3.641,3.641,0,0,1-2.444-1,3.541,3.541,0,0,1,0-4.988L159.693,3.468a3.492,3.492,0,0,1,4.988,0,3.542,3.542,0,0,1,0,4.988L111.609,63.323a3.491,3.491,0,0,1-2.544,1Z" transform="translate(17126.887 3042.522)" fill="#0d0d0d"/>
    <g id="Group_45" data-name="Group 45" transform="translate(17432.465 3114.746)">
      <path id="Path_261" data-name="Path 261" d="M158.183,46.582a3.591,3.591,0,0,1-2.694-1.247L144.267,32.117a3.492,3.492,0,0,1,5.337-4.489L160.727,40.8a3.541,3.541,0,0,1-2.644,5.786Z" transform="translate(-93.725 23.876)" fill="#0d0d0d"/>
      <path id="Path_262" data-name="Path 262" d="M150.883,38.039a3.292,3.292,0,0,1-2.644-1.247L137.016,23.624a3.492,3.492,0,1,1,5.287-4.539L153.527,32.3a3.492,3.492,0,0,1-.4,4.988A3.442,3.442,0,0,1,150.883,38.039Z" transform="translate(-123.785 -11.325)" fill="#0d0d0d"/>
      <path id="Path_263" data-name="Path 263" d="M141.911,50.354a3.342,3.342,0,0,1-1.2,0,3.492,3.492,0,0,1-2.095-4.439l5.836-16.361a3.5,3.5,0,1,1,6.584,2.394L145.2,48.259A3.442,3.442,0,0,1,141.911,50.354Z" transform="translate(-114.215 26.789)" fill="#0d0d0d"/>
      <path id="Path_264" data-name="Path 264" d="M145.791,39.537a3.342,3.342,0,0,1-1.2,0A3.491,3.491,0,0,1,142.5,35.1l5.836-16.36a3.495,3.495,0,0,1,6.584,2.344l-5.836,16.361a3.591,3.591,0,0,1-3.292,2.095Z" transform="translate(-98.741 -16.414)" fill="#0d0d0d"/>
      <path id="Path_265" data-name="Path 265" d="M137.071,34.278a3.542,3.542,0,0,1-3.442-2.893,3.442,3.442,0,0,1,2.793-4.04L153.481,24.2a3.542,3.542,0,0,1,4.09,2.843,3.442,3.442,0,0,1-2.793,4.04L137.72,34.178Z" transform="translate(-133.568 14.433)" fill="#0d0d0d"/>
      <path id="Path_266" data-name="Path 266" d="M148.433,32.134a3.492,3.492,0,0,1-.648-6.933l17.059-3.093a3.492,3.492,0,0,1,1.247,6.834l-17.059,3.142Z" transform="translate(-88.465 6.252)" fill="#0d0d0d"/>
    </g>
    <path id="Path_268" data-name="Path 268" d="M172.282,231.953h0a3.442,3.442,0,0,1-3.442-3.492l.349-43.4a3.641,3.641,0,0,1,1.646-2.893,3.492,3.492,0,0,1,3.292-.249l31.324,14.116.349-38.008a3.541,3.541,0,0,1,3.492-3.492h0a3.492,3.492,0,0,1,3.442,3.541l-.4,43.345a3.442,3.442,0,0,1-4.988,3.142L176.023,190.5l-.349,38.008a3.542,3.542,0,0,1-3.392,3.442Z" transform="translate(16748.465 3169.824)" fill="#0d0d0d"/>
    <path id="Path_269" data-name="Path 269" d="M227.644,103.238a3.441,3.441,0,0,1-2.195-.748L198.414,80.842a3.513,3.513,0,0,1,4.389-5.487l24.291,19.5,19.4-24.192a3.392,3.392,0,0,1,2.344-1.3,3.591,3.591,0,0,1,2.544.748l24.341,19.5,19.353-24.192a3.442,3.442,0,0,1,4.988-.549,3.491,3.491,0,0,1,.549,4.988L279.07,96.8a3.491,3.491,0,0,1-2.344,1.3,3.641,3.641,0,0,1-2.544-.748l-24.291-19.5-19.4,24.192a3.292,3.292,0,0,1-2.294,1.3Z" transform="translate(17689.73 3710.8)" fill="#0d0d0d"/>
    <path id="Path_279" data-name="Path 279" d="M157.708,79.377a7.532,7.532,0,0,1-2.045-.3h0a6.933,6.933,0,1,1,2.045.3Zm0-6.983h0l-.848,3.192,1.047-3.292Z" transform="translate(17387.762 3714.598)" fill="#0d0d0d"/>
    <path id="Path_280" data-name="Path 280" d="M32.611,99.651a7.93,7.93,0,0,1-2.145-.3,7.178,7.178,0,1,1,2.145.3ZM32.611,92.668Z" transform="translate(16595.076 3924.304)" fill="#0d0d0d"/>
    <path id="Path_282" data-name="Path 282" d="M83.794,66.542a6.135,6.135,0,0,1-2.095-.349h0a6.534,6.534,0,0,1-3.94-3.342,6.684,6.684,0,0,1-.449-4.988,6.783,6.783,0,0,1,12.52-1.047,6.684,6.684,0,0,1,.4,4.988,6.385,6.385,0,0,1-3.342,3.941A6.234,6.234,0,0,1,83.794,66.542Zm0-6.983Z" transform="translate(16950.148 3585.365)" fill="#0d0d0d"/>
    <path id="Path_283" data-name="Path 283" d="M259.387,68.3a6.435,6.435,0,0,1-2.145-.349h0a6.834,6.834,0,0,1-4.14-3.492,6.983,6.983,0,0,1-.449-5.387,7.084,7.084,0,0,1,3.442-4.14,7.232,7.232,0,0,1,5.387-.449A7.083,7.083,0,0,1,259.387,68.3Zm0-7.083Z" transform="translate(18039.402 3596.64)" fill="#0d0d0d"/>
    <g id="Group_52" data-name="Group 52" transform="translate(18194.543 3832.436)">
      <path id="Path_284" data-name="Path 284" d="M295.579,80.783H236.322a3.492,3.492,0,1,1,0-6.983h59.257a3.492,3.492,0,1,1,0,6.983Z" transform="translate(-232.83 -44.172)" fill="#0d0d0d"/>
      <path id="Path_285" data-name="Path 285" d="M242.262,134.1a3.492,3.492,0,0,1-3.492-3.492V71.352a3.492,3.492,0,1,1,6.983,0v59.257A3.492,3.492,0,0,1,242.262,134.1Z" transform="translate(-209.143 -67.86)" fill="#0d0d0d"/>
    </g>
    <g id="Group_51" data-name="Group 51" transform="translate(17430.434 3543.917)">
      <path id="Path_288" data-name="Path 288" d="M137.628,92.331a3.541,3.541,0,0,1-2.444-5.986l41.45-41.4a3.442,3.442,0,0,1,4.988,0,3.541,3.541,0,0,1,0,4.988l-41.45,41.4A3.491,3.491,0,0,1,137.628,92.331Z" transform="translate(-134.156 -43.826)" fill="#0d0d0d"/>
      <path id="Path_289" data-name="Path 289" d="M179.115,92.371a3.342,3.342,0,0,1-2.444-1.047l-41.45-41.4a3.541,3.541,0,0,1,0-4.988,3.442,3.442,0,0,1,4.988,0l41.45,41.4a3.541,3.541,0,0,1-2.494,5.986Z" transform="translate(-134.194 -43.866)" fill="#0d0d0d"/>
    </g>
    <path id="Path_290" data-name="Path 290" d="M103.489,94.015A3.541,3.541,0,0,1,101,92.967l-33.32-33.32a3.442,3.442,0,0,1,0-4.988L101,21.29a3.641,3.641,0,0,1,4.988,0L139.352,54.66a3.541,3.541,0,0,1,0,4.988l-33.369,33.32A3.542,3.542,0,0,1,103.489,94.015ZM75.058,57.154l28.431,28.431,28.382-28.431L103.489,28.772Z" transform="translate(16836.227 2932.835)" fill="#0d0d0d"/>
    <g id="ecology-and-environment" transform="translate(16751.627 3508.08) rotate(-30)">
      <path id="Path_294" data-name="Path 294" d="M124.618,218.537v1.345a.715.715,0,0,1-.715.715H118.47a.715.715,0,0,1-.715-.715v-1.359a19.447,19.447,0,1,0-38.892-.214v1.573a.715.715,0,0,1-.715.715H72.715a.715.715,0,0,1-.715-.715v-1.573a26.31,26.31,0,1,1,52.618.228Z" transform="translate(-61.705 -61.705)"/>
      <path id="Path_296" data-name="Path 296" d="M103.627,209.164v.87a.447.447,0,0,1-.43.462H99.931a.447.447,0,0,1-.43-.462v-.879c0-6.94-5.17-12.676-11.62-12.716-6.476-.04-11.757,5.618-11.757,12.577v1.017a.447.447,0,0,1-.43.462H72.43a.447.447,0,0,1-.43-.462v-1.017C72,199.631,79.1,192,87.821,192,96.514,192,103.627,199.809,103.627,209.164Z" transform="translate(-51.183 -51.641)"/>
      <path id="Path_295" data-name="Path 295" d="M73.208,156.589a2.3,2.3,0,0,1-2.288,2.3H68.2a.715.715,0,0,1-.715-.715V156.6a30.885,30.885,0,0,0-52.724-21.838A30.682,30.682,0,0,0,5.719,156.6v1.573a.715.715,0,0,1-.715.715H2.288A2.3,2.3,0,0,1,0,156.589a36.6,36.6,0,0,1,73.208,0Z" transform="translate(0 0)"/>
    </g>
    <g id="ecology-and-environment-2" data-name="ecology-and-environment" transform="translate(18051.77 3184.056) rotate(45)">
      <path id="Path_294-2" data-name="Path 294" d="M124.618,218.537v1.345a.715.715,0,0,1-.715.715H118.47a.715.715,0,0,1-.715-.715v-1.359a19.447,19.447,0,1,0-38.892-.214v1.573a.715.715,0,0,1-.715.715H72.715a.715.715,0,0,1-.715-.715v-1.573a26.31,26.31,0,1,1,52.618.228Z" transform="translate(-61.705 -61.705)"/>
      <path id="Path_296-2" data-name="Path 296" d="M103.627,209.164v.87a.447.447,0,0,1-.43.462H99.931a.447.447,0,0,1-.43-.462v-.879c0-6.94-5.17-12.676-11.62-12.716-6.476-.04-11.757,5.618-11.757,12.577v1.017a.447.447,0,0,1-.43.462H72.43a.447.447,0,0,1-.43-.462v-1.017C72,199.631,79.1,192,87.821,192,96.514,192,103.627,199.809,103.627,209.164Z" transform="translate(-51.183 -51.641)"/>
      <path id="Path_295-2" data-name="Path 295" d="M73.208,156.589a2.3,2.3,0,0,1-2.288,2.3H68.2a.715.715,0,0,1-.715-.715V156.6a30.885,30.885,0,0,0-52.724-21.838A30.682,30.682,0,0,0,5.719,156.6v1.573a.715.715,0,0,1-.715.715H2.288A2.3,2.3,0,0,1,0,156.589a36.6,36.6,0,0,1,73.208,0Z" transform="translate(0 0)"/>
    </g>
    <g id="ecology-and-environment-3" data-name="ecology-and-environment" transform="translate(18042.77 3899.056) rotate(45)">
      <path id="Path_294-3" data-name="Path 294" d="M124.618,218.537v1.345a.715.715,0,0,1-.715.715H118.47a.715.715,0,0,1-.715-.715v-1.359a19.447,19.447,0,1,0-38.892-.214v1.573a.715.715,0,0,1-.715.715H72.715a.715.715,0,0,1-.715-.715v-1.573a26.31,26.31,0,1,1,52.618.228Z" transform="translate(-61.705 -61.705)"/>
      <path id="Path_296-3" data-name="Path 296" d="M103.627,209.164v.87a.447.447,0,0,1-.43.462H99.931a.447.447,0,0,1-.43-.462v-.879c0-6.94-5.17-12.676-11.62-12.716-6.476-.04-11.757,5.618-11.757,12.577v1.017a.447.447,0,0,1-.43.462H72.43a.447.447,0,0,1-.43-.462v-1.017C72,199.631,79.1,192,87.821,192,96.514,192,103.627,199.809,103.627,209.164Z" transform="translate(-51.183 -51.641)"/>
      <path id="Path_295-3" data-name="Path 295" d="M73.208,156.589a2.3,2.3,0,0,1-2.288,2.3H68.2a.715.715,0,0,1-.715-.715V156.6a30.885,30.885,0,0,0-52.724-21.838A30.682,30.682,0,0,0,5.719,156.6v1.573a.715.715,0,0,1-.715.715H2.288A2.3,2.3,0,0,1,0,156.589a36.6,36.6,0,0,1,73.208,0Z" transform="translate(0 0)"/>
    </g>
    <g id="ecology-and-environment-4" data-name="ecology-and-environment" transform="translate(17033.77 3130.056) rotate(45)">
      <path id="Path_294-4" data-name="Path 294" d="M124.618,218.537v1.345a.715.715,0,0,1-.715.715H118.47a.715.715,0,0,1-.715-.715v-1.359a19.447,19.447,0,1,0-38.892-.214v1.573a.715.715,0,0,1-.715.715H72.715a.715.715,0,0,1-.715-.715v-1.573a26.31,26.31,0,1,1,52.618.228Z" transform="translate(-61.705 -61.705)"/>
      <path id="Path_296-4" data-name="Path 296" d="M103.627,209.164v.87a.447.447,0,0,1-.43.462H99.931a.447.447,0,0,1-.43-.462v-.879c0-6.94-5.17-12.676-11.62-12.716-6.476-.04-11.757,5.618-11.757,12.577v1.017a.447.447,0,0,1-.43.462H72.43a.447.447,0,0,1-.43-.462v-1.017C72,199.631,79.1,192,87.821,192,96.514,192,103.627,199.809,103.627,209.164Z" transform="translate(-51.183 -51.641)"/>
      <path id="Path_295-4" data-name="Path 295" d="M73.208,156.589a2.3,2.3,0,0,1-2.288,2.3H68.2a.715.715,0,0,1-.715-.715V156.6a30.885,30.885,0,0,0-52.724-21.838A30.682,30.682,0,0,0,5.719,156.6v1.573a.715.715,0,0,1-.715.715H2.288A2.3,2.3,0,0,1,0,156.589a36.6,36.6,0,0,1,73.208,0Z" transform="translate(0 0)"/>
    </g>
  </g>
</svg>
