<svg xmlns="http://www.w3.org/2000/svg" width="1920" height="1172.325" viewBox="0 0 1920 1172.325">
  <g id="Group_93" data-name="Group 93" transform="translate(0 -4302.675)">
    <path id="Image" d="M0,0,1920,170v910H0Z" transform="translate(0 4395)" fill="#fd2653"/>
    <circle id="Ellipse_3" data-name="Ellipse 3" cx="12.5" cy="12.5" r="12.5" transform="translate(1087 4498)" fill="#fff"/>
    <g id="umbrella" transform="translate(1123.402 4295.39) rotate(30)">
      <g id="Group_89" data-name="Group 89" transform="translate(11.319 6.979)">
        <path id="Path_297" data-name="Path 297" d="M105.908,7.74v.008c-69.339,24.894-66.165,93.836-66.165,93.836H12.08A93.838,93.838,0,0,1,105.908,7.74Z" transform="translate(-12.08 -7.74)" fill="#ff4a73"/>
        <path id="Path_298" data-name="Path 298" d="M112.41,7.75v.008c-.826.971-31.565,37.191-31.961,93.828h-34.2S43.071,32.644,112.41,7.75Z" transform="translate(-18.582 -7.742)" fill="#ffa31d"/>
        <path id="Path_299" data-name="Path 299" d="M120.478,82.83v18.757H88.5c.4-56.637,31.136-92.856,31.961-93.828Z" transform="translate(-26.633 -7.744)" fill="#f9d335"/>
        <path id="Path_300" data-name="Path 300" d="M194.181,101.584S197.355,32.634,128,7.74a93.845,93.845,0,0,1,93.844,93.844Z" transform="translate(-34.156 -7.74)" fill="#bd66d3"/>
        <path id="Path_301" data-name="Path 301" d="M128,101.584V82.827l-.016-75.07L128,7.74s31.573,36.43,31.978,93.844Z" transform="translate(-34.152 -7.74)" fill="#44c7b6"/>
        <path id="Path_302" data-name="Path 302" d="M194.181,101.584h-34.2C159.573,44.17,128,7.74,128,7.74,197.355,32.634,194.181,101.584,194.181,101.584Z" transform="translate(-34.156 -7.74)" fill="#3193f3"/>
        <path id="Path_303" data-name="Path 303" d="M105.908,7.74v.008c-1.158.413-2.291.842-3.408,1.287a93.847,93.847,0,0,0-78.276,92.549H12.08A93.838,93.838,0,0,1,105.908,7.74Z" transform="translate(-12.08 -7.74)" fill="#f973a3"/>
        <path id="Path_304" data-name="Path 304" d="M112.41,7.75v.008a92.035,92.035,0,0,0-6.193,8.452c-50.411,29.257-47.829,85.376-47.829,85.376H46.245S43.071,32.644,112.41,7.75Z" transform="translate(-18.582 -7.742)" fill="#f9b04e"/>
        <path id="Path_305" data-name="Path 305" d="M120.461,7.76v18.3a159.1,159.1,0,0,0-19.818,75.532H88.5c.4-56.637,31.136-92.856,31.961-93.828Z" transform="translate(-26.633 -7.744)" fill="#f9e27d"/>
        <path id="Path_306" data-name="Path 306" d="M159.974,101.584H147.83A159.046,159.046,0,0,0,127.98,26V7.756L128,7.74S159.569,44.17,159.974,101.584Z" transform="translate(-34.152 -7.74)" fill="#3bb2a0"/>
        <path id="Path_307" data-name="Path 307" d="M194.181,101.584H182.038s2.582-56.111-47.829-85.376A89.6,89.6,0,0,0,128,7.74C197.355,32.634,194.181,101.584,194.181,101.584Z" transform="translate(-34.156 -7.74)" fill="#307fed"/>
        <path id="Path_308" data-name="Path 308" d="M221.844,101.584H209.7A93.849,93.849,0,0,0,131.457,9.043c-1.133-.445-2.283-.882-3.457-1.3a93.845,93.845,0,0,1,93.844,93.844Z" transform="translate(-34.156 -7.74)" fill="#a442bc"/>
      </g>
      <g id="Group_90" data-name="Group 90" transform="translate(8.083 3.745)">
        <path id="Path_309" data-name="Path 309" d="M105.205,3.745h-.089a97.19,97.19,0,0,0-97.033,97.08,3.238,3.238,0,0,0,3.238,3.238h90.6v83.785a10.6,10.6,0,1,1-21.21,0V163.412a3.238,3.238,0,1,0-6.476,0v24.436a17.081,17.081,0,1,0,34.163,0V104.063H199a3.238,3.238,0,0,0,3.238-3.238,97.191,97.191,0,0,0-97.038-97.08ZM14.616,97.587A90.77,90.77,0,0,1,85.854,12.3,96.925,96.925,0,0,0,43.045,62.071a108.992,108.992,0,0,0-7.3,35.516Zm55.392,0H42.229a103.324,103.324,0,0,1,6.856-33.178c8.77-22.658,24.432-39.437,46.634-50A161.051,161.051,0,0,0,70.008,97.587Zm31.917,0H76.486a156.384,156.384,0,0,1,25.425-80.673l.014,65.152Zm6.476,0V82.064l-.014-65.212a156.073,156.073,0,0,1,25.453,80.734Zm31.917,0A161.048,161.048,0,0,0,114.606,14.4c22.121,10.529,37.751,27.228,46.542,49.765a103.732,103.732,0,0,1,6.944,33.417Zm34.266,0a108.988,108.988,0,0,0-7.3-35.516A96.931,96.931,0,0,0,124.473,12.3,90.771,90.771,0,0,1,195.71,97.587Z" transform="translate(-8.083 -3.745)"/>
        <path id="Path_310" data-name="Path 310" d="M81.057,62a3.235,3.235,0,0,0-4.3,1.588c-.644,1.4-1.26,2.89-1.834,4.435A3.238,3.238,0,1,0,81,70.277c.516-1.391,1.069-2.73,1.645-3.981A3.238,3.238,0,0,0,81.057,62Z" transform="translate(-20.774 -14.782)"/>
        <path id="Path_311" data-name="Path 311" d="M74.034,81.395a3.242,3.242,0,0,0-3.838,2.5A106.5,106.5,0,0,0,68,100.511a3.239,3.239,0,0,0,3.125,3.348l.114,0a3.238,3.238,0,0,0,3.234-3.127,101.012,101.012,0,0,1,2.059-15.5A3.24,3.24,0,0,0,74.034,81.395Z" transform="translate(-19.494 -18.519)"/>
      </g>
    </g>
    <path id="Path_312" data-name="Path 312" d="M12710.3,4628.312l-3.345,9.41s3.224-3.972,10.31-4.2c2.451.8,2.9-4.361,2.9-4.361Z" transform="translate(-11617 -136)" fill="#fd2653" stroke="#fd2653" stroke-width="1"/>
  </g>
</svg>
